<svg width="679" height="428" viewBox="0 0 679 428" fill="none" xmlns="http://www.w3.org/2000/svg">
<path fill-rule="evenodd" clip-rule="evenodd" d="M0 213.999V428L121.53 427.148C237.779 426.332 243.827 426.083 260.696 421.401C311.418 407.33 346.875 373.21 354.934 330.72C360.048 303.753 356.168 269.283 345.675 248.451C334.779 226.824 316.241 210.099 292.448 200.43L280.679 195.646L295.769 185.629C312.431 174.567 325.882 158.416 331.41 142.83C336.228 129.243 337.994 97.4387 334.863 80.6593C327.636 41.9439 301.716 17.2044 256.627 5.98875C242.88 2.56822 224.972 1.91486 120.4 1.02412L0 0V213.999ZM440.9 46.748V70.4859H526.819H612.738V46.748V23.01H526.819H440.9V46.748ZM199.999 75.1092C218.632 77.8017 232.82 85.4047 239.56 96.3083C249.027 111.625 247.761 139.595 236.913 154.83C234.301 158.497 226.476 164.163 219.525 167.423C206.945 173.321 206.615 173.35 150.555 173.35H94.226L93.8281 124.744C93.6088 98.0107 93.8349 75.3759 94.3301 74.4423C95.6641 71.9306 181.755 72.4731 199.999 75.1092ZM495.165 105.369C472.892 110.097 455.977 117.204 437.35 129.661C409.755 148.118 389.387 175.645 378.301 209.475C369.739 235.607 368.26 282.125 375.084 310.793C382.505 341.971 393.606 362.361 414.858 383.834C434.753 403.939 454.356 415.288 481.599 422.472C502.242 427.916 554.006 427.808 574.301 422.28C615.216 411.135 643.692 387.569 661.393 350.205C666.967 338.442 671.525 327.665 671.525 326.255C671.525 324.448 660.598 323.691 634.492 323.691H597.461L594.646 330.484C588.272 345.869 561.427 361.669 538.061 363.788C530.711 364.455 518.307 363.765 510.497 362.255C477.165 355.807 461.132 336.507 455.457 295.997L453.953 285.258H566.475H679L677.585 260.532C675.844 230.116 671.213 210.452 660.247 186.915C641.076 145.767 610.339 118.622 570.787 107.911C551.912 102.799 513.373 101.504 495.165 105.369ZM555.082 172.102C571.325 179.133 584.801 198.818 591.421 225.19L592.846 230.869L524.57 231.499C487.016 231.845 455.796 231.325 455.188 230.34C454.579 229.356 456.257 221.392 458.916 212.64C468.562 180.888 496.834 163.625 533.602 167.036C540.442 167.669 550.108 169.95 555.082 172.102ZM232.054 244.164C254.449 254.297 262.872 268.904 262.921 297.692C262.971 325.73 253.21 340.452 228.208 350.06C219.693 353.332 208.91 353.931 156.321 354.06L94.4499 354.211L93.6811 295.868L92.9124 237.524L156.682 238.218C217.789 238.883 220.934 239.132 232.054 244.164Z" fill="url(#paint0_linear_111_4)"/>
<defs>
<linearGradient id="paint0_linear_111_4" x1="339.5" y1="0" x2="339.5" y2="428" gradientUnits="userSpaceOnUse">
<stop stop-color="#11F1C9"/>
<stop offset="1" stop-color="#006CC4"/>
</linearGradient>
</defs>
</svg>
