<?xml version="1.0" encoding="utf-8"?>
<svg width="2560px" height="1440px" viewBox="0 0 2560 1440" version="1.1" xmlns:xlink="http://www.w3.org/1999/xlink" xmlns="http://www.w3.org/2000/svg">
  <defs>
    <filter filterUnits="userSpaceOnUse" color-interpolation-filters="sRGB" id="filter_1">
      <feFlood flood-opacity="0" result="BackgroundImageFix" />
      <feBlend mode="normal" in="SourceGraphic" in2="BackgroundImageFix" result="shape" />
      <feGaussianBlur stdDeviation="25" result="effect0_gaussianBlur" />
    </filter>
    <filter filterUnits="userSpaceOnUse" color-interpolation-filters="sRGB" id="filter_2">
      <feFlood flood-opacity="0" result="BackgroundImageFix" />
      <feBlend mode="normal" in="SourceGraphic" in2="BackgroundImageFix" result="shape" />
      <feGaussianBlur stdDeviation="9" result="effect0_gaussianBlur" />
    </filter>
    <rect width="2560" height="1440" id="artboard_1" />
    <clipPath id="clip_1">
      <use xlink:href="#artboard_1" clip-rule="evenodd" />
    </clipPath>
  </defs>
  <g id="Quad-HD" clip-path="url(#clip_1)">
    <use xlink:href="#artboard_1" stroke="none" fill="#131313" />
    <path d="M0 0C0 0 1090.15 281.873 1136 514C1181.85 746.127 954.237 827.646 1136 1064C1317.76 1300.35 2513.5 1391.5 2513.5 1391.5" transform="translate(-662 409.5)" id="Linha__1" fill="none" fill-rule="evenodd" stroke="#1FD3B8" stroke-width="61" filter="url(#filter_1)" />
    <path d="M0 0C0 0 1153.47 312.259 1201.99 569.408C1250.5 826.557 1009.67 916.864 1201.99 1178.7C1394.31 1440.53 2659.5 1541.5 2659.5 1541.5" transform="translate(-123 -101)" id="linha__2" fill="none" fill-rule="evenodd" stroke="#1FD3B8" stroke-width="69" />
    <path d="M0 0C0 0 1090.15 281.873 1136 514C1181.85 746.127 954.237 827.646 1136 1064C1317.76 1300.35 2513.5 1391.5 2513.5 1391.5" transform="translate(1280 -111)" id="Linha__3" fill="none" fill-rule="evenodd" stroke="#1FD3B8" stroke-width="69" filter="url(#filter_2)" />
  </g>
</svg>