<svg width="1440" height="1024" viewBox="0 0 1440 1024" fill="none" xmlns="http://www.w3.org/2000/svg">
    <rect width="1440" height="1024" fill="#E5E5E5"/>
    <g id="Desktop - 1" clip-path="url(#clip0_0_1)">
    <rect width="1440" height="1024" fill="#131313"/>
    <g id="Vector 2" filter="url(#filter0_f_0_1)">
    <path d="M1743.5 -128.27C1671 -377.27 1482.17 -379.27 1352.5 -348.27L1340 271.73C1469.67 242.73 1813.58 112.404 1743.5 -128.27Z" fill="#026E86"/>
    </g>
    <g id="Vector 3" filter="url(#filter1_f_0_1)">
    <path d="M1677.5 994.73C1605 745.73 1416.17 743.73 1286.5 774.73L1274 1394.73C1403.67 1365.73 1747.58 1235.4 1677.5 994.73Z" fill="#026E86"/>
    </g>
    <g id="Vector 1" filter="url(#filter2_f_0_1)">
    <path d="M334.5 378C262 129 73.1667 127 -56.5 158L-69 778C60.6667 749 404.576 618.674 334.5 378Z" fill="#026E86"/>
    </g>
    </g>
    <defs>
    <filter id="filter0_f_0_1" x="1040" y="-662" width="1012.82" height="1233.73" filterUnits="userSpaceOnUse" color-interpolation-filters="sRGB">
    <feFlood flood-opacity="0" result="BackgroundImageFix"/>
    <feBlend mode="normal" in="SourceGraphic" in2="BackgroundImageFix" result="shape"/>
    <feGaussianBlur stdDeviation="150" result="effect1_foregroundBlur_0_1"/>
    </filter>
    <filter id="filter1_f_0_1" x="974" y="461" width="1012.82" height="1233.73" filterUnits="userSpaceOnUse" color-interpolation-filters="sRGB">
    <feFlood flood-opacity="0" result="BackgroundImageFix"/>
    <feBlend mode="normal" in="SourceGraphic" in2="BackgroundImageFix" result="shape"/>
    <feGaussianBlur stdDeviation="150" result="effect1_foregroundBlur_0_1"/>
    </filter>
    <filter id="filter2_f_0_1" x="-369" y="-155.73" width="1012.82" height="1233.73" filterUnits="userSpaceOnUse" color-interpolation-filters="sRGB">
    <feFlood flood-opacity="0" result="BackgroundImageFix"/>
    <feBlend mode="normal" in="SourceGraphic" in2="BackgroundImageFix" result="shape"/>
    <feGaussianBlur stdDeviation="150" result="effect1_foregroundBlur_0_1"/>
    </filter>
    <clipPath id="clip0_0_1">
    <rect width="1440" height="1024" fill="white"/>
    </clipPath>
    </defs>
</svg>
