<svg width="71" height="69" viewBox="0 0 71 69" fill="none" xmlns="http://www.w3.org/2000/svg">
<path id="image 2 (Traced)" fill-rule="evenodd" clip-rule="evenodd" d="M32.4959 0.0591475C31.8994 0.108694 31.1368 0.189779 30.8014 0.239325C29.6959 0.40259 27.2237 0.855671 27.1329 0.911684C27.0838 0.941929 26.6755 1.05286 26.2254 1.15812C25.7753 1.26348 25.3173 1.38994 25.2077 1.43918C25.098 1.48843 24.6495 1.64025 24.2109 1.77656C23.3942 2.03046 22.1746 2.46871 21.8186 2.63646C21.7089 2.68809 21.3053 2.87364 20.9215 3.04885C20.5377 3.22405 20.0667 3.43984 19.8749 3.52849C19.5366 3.68469 17.635 4.71452 17.2348 4.95827C16.3044 5.52487 14.43 6.7888 14.0166 7.12846C13.8568 7.25969 13.5521 7.50145 13.3394 7.66561C11.5092 9.07868 8.8278 11.758 7.61441 13.3859C7.47736 13.5698 7.25757 13.8499 7.12609 14.0082C6.78539 14.4183 5.45029 16.3913 4.954 17.2181C4.66882 17.6932 3.42792 19.9542 3.42792 19.9987C3.42792 20.0258 3.26774 20.3959 3.07187 20.8211C2.8761 21.2464 2.65651 21.7286 2.58404 21.8928C2.33444 22.458 1.65613 24.3807 1.58367 24.7283C1.54369 24.9198 1.47721 25.1213 1.43585 25.176C1.39458 25.2307 1.30427 25.5217 1.23519 25.8227C1.16612 26.1236 1.04959 26.5507 0.976128 26.7716C0.813453 27.2616 0.377158 29.6383 0.164245 31.1952C-0.0547484 32.7961 -0.0547484 37.9515 0.164245 39.5524C0.377158 41.1092 0.813453 43.486 0.976128 43.976C1.04959 44.1969 1.16612 44.6239 1.23519 44.9249C1.30427 45.2259 1.39458 45.5169 1.43585 45.5716C1.47721 45.6263 1.54369 45.8278 1.58367 46.0193C1.65613 46.3669 2.33444 48.2896 2.58404 48.8548C2.65651 49.019 2.8761 49.5012 3.07187 49.9265C3.26774 50.3517 3.42792 50.7237 3.42792 50.753C3.42792 50.8905 5.11866 53.8353 5.67965 54.675C6.94707 56.5719 7.04575 56.7027 8.56884 58.5054C9.91868 60.1029 12.3068 62.3389 14.0437 63.6314C14.3726 63.8761 14.6642 64.1013 14.6916 64.1316C14.719 64.162 14.9208 64.2941 15.1401 64.4251C15.3594 64.5561 15.5613 64.6919 15.5887 64.727C15.6415 64.7944 16.642 65.4379 17.1998 65.7633C17.9142 66.1799 19.4101 67.0119 19.445 67.0119C19.4652 67.0119 19.8056 67.1725 20.2016 67.369C20.5975 67.5654 21.37 67.9046 21.9183 68.1226C22.4665 68.3407 23.0496 68.5786 23.2141 68.6514C24.4615 69.2034 25.5327 69.0982 26.3066 68.3474C26.8673 67.8035 27.1284 67.2763 27.2489 66.4442C27.3633 65.6541 27.3858 61.4728 27.276 61.408C27.2348 61.3839 26.82 61.4307 26.354 61.5122C25.2726 61.7012 22.3535 61.7249 21.4697 61.5518C19.8884 61.242 18.1187 60.48 16.9976 59.6263C15.8716 58.7687 14.7997 57.5033 14.3252 56.4712C13.5644 54.8166 13.0208 53.7981 12.5485 53.1428C12.1496 52.5894 11.2654 51.6861 10.7173 51.2722C9.83704 50.6074 9.51767 50.2697 9.45009 49.9322C9.36337 49.4996 9.70128 49.2901 10.583 49.2295C11.7003 49.1526 13.2943 49.6468 14.285 50.3773C14.9745 50.8856 16.0542 52.0462 16.5249 52.7847C17.433 54.2097 19.0126 55.4402 20.6029 55.9614C22.5379 56.5957 25.1222 56.6293 26.9167 56.0437L27.3009 55.9182L27.3717 54.7743C27.4679 53.2196 27.6221 52.3394 27.9105 51.6976C28.0796 51.3216 28.1193 51.137 28.0412 51.0889C27.9796 51.0509 27.6084 50.9674 27.2164 50.9034C26.8242 50.8393 26.2792 50.7234 26.0051 50.6457C24.5297 50.2276 22.7031 49.667 22.616 49.6059C22.5612 49.5672 22.2921 49.455 22.018 49.3562C21.1611 49.0477 19.2551 48.0618 18.3754 47.472C16.9271 46.5011 16.9518 46.5201 15.8323 45.5183C15.1711 44.9267 14.11 43.666 13.4067 42.637C12.9823 42.0158 12.1223 40.2678 11.9018 39.578C11.7836 39.2083 11.6455 38.8162 11.595 38.7067C11.4668 38.4294 11.2507 37.3274 11.051 35.9337C10.5812 32.6536 11.3099 28.4351 12.8663 25.4247C13.1505 24.875 13.2308 24.7413 13.8823 23.7334C14.2492 23.1657 15.0527 22.1605 15.4562 21.7645C15.7216 21.5039 15.7395 21.4128 15.5615 21.2283C15.3519 21.011 14.9006 19.8499 14.7371 19.1071C14.4956 18.0097 14.4421 15.8047 14.6294 14.6688C14.7865 13.7167 15.2946 12.1852 15.5528 11.8861C15.6274 11.7998 15.6884 11.692 15.6884 11.6468C15.6884 11.6016 15.8028 11.4148 15.9426 11.2318C16.1649 10.9409 16.2535 10.8991 16.6482 10.8991C17.3763 10.8991 19.3502 11.2751 20.3733 11.6087C21.4067 11.9457 22.8455 12.6436 23.862 13.301C24.6478 13.8092 26.0735 14.9926 26.3973 15.4056L26.6331 15.7064L27.2162 15.4932C27.8849 15.2487 29.2108 14.9355 30.4408 14.7313C31.6061 14.538 34.4649 14.2818 35.4567 14.2818C36.498 14.2818 39.6012 14.5458 40.7077 14.7286C41.82 14.9123 43.6346 15.3353 43.8853 15.4692C44.2185 15.6472 44.3228 15.5964 44.9938 14.9292C45.9314 13.9971 47.4429 12.967 48.8565 12.2967C50.4516 11.5404 52.9696 10.8979 54.3309 10.8998C54.762 10.9004 54.8349 10.9341 55.0304 11.2231C55.2723 11.581 55.7444 12.4853 55.9275 12.9417C56.7446 14.9789 56.6885 18.8228 55.8126 20.7995C55.5529 21.3858 55.5621 21.4806 55.9097 21.7933C56.0811 21.9475 57.1962 23.4369 57.4801 23.8908C58.096 24.8755 58.8547 26.5122 59.0905 27.3648C59.1813 27.6931 59.2954 28.0513 59.3442 28.1607C59.4601 28.4206 59.6104 29.1207 59.8141 30.3495C60.016 31.5669 60.1083 35.2765 59.9564 36.0702C59.8989 36.3712 59.7803 36.9938 59.6931 37.4537C59.4625 38.6702 58.9008 40.2479 58.2731 41.4427C57.9713 42.0173 57.6925 42.5098 57.6537 42.5371C57.6149 42.5645 57.4667 42.7724 57.3244 42.9993C56.6942 44.0037 55.3189 45.4636 54.0695 46.4545C52.2007 47.9366 49.6882 49.2221 46.9874 50.0782C45.9783 50.3981 43.561 50.9938 43.2721 50.9938C42.9094 50.9938 42.8546 51.1434 43.0801 51.518C43.3019 51.8864 43.3623 52.1107 43.5553 53.2821C43.6637 53.9408 43.6949 55.4903 43.6963 60.2897C43.6983 67.3427 43.6847 67.2061 44.4751 68.1078C45.512 69.291 46.5297 69.2778 49.2581 68.0455C49.5475 67.9147 49.8117 67.8078 49.8451 67.8078C49.9554 67.8078 52.7029 66.4083 53.5231 65.9345C54.6372 65.2907 56.7034 63.9001 56.9553 63.6244C56.9827 63.5944 57.1621 63.4622 57.354 63.3307C57.5458 63.1992 57.7253 63.067 57.7527 63.037C57.7801 63.0071 58.0492 62.7812 58.3508 62.5352C59.9324 61.2447 61.8757 59.2665 63.1915 57.6075C64.2555 56.2661 64.3538 56.1338 64.928 55.2719C65.2015 54.8615 65.46 54.481 65.5027 54.4263C65.6321 54.2604 66.3792 52.986 66.8734 52.0882C67.4457 51.0484 68.3111 49.1757 68.6203 48.3076C68.747 47.9519 68.8824 47.6161 68.9213 47.5614C68.9809 47.4772 69.296 46.4681 69.9621 44.2285C70.0354 43.9822 70.1887 43.2883 70.3029 42.6864C70.4171 42.0844 70.5565 41.3905 70.6124 41.1443C71.1304 38.8654 71.1288 31.9472 70.6098 29.6033C70.5553 29.3571 70.4171 28.6631 70.3029 28.0612C70.1887 27.4593 70.0357 26.7654 69.9628 26.5191C69.4302 24.7188 68.9745 23.2701 68.9143 23.1862C68.8751 23.1315 68.7875 22.9076 68.7196 22.6887C68.5213 22.0493 67.4361 19.6897 66.8434 18.6096C65.6043 16.3514 64.9201 15.3287 63.2157 13.1874C61.7774 11.3804 59.7443 9.30522 58.2933 8.16307C58.0848 7.99891 57.732 7.71874 57.5095 7.54055C56.9712 7.10956 56.9589 7.10031 56.5565 6.82203C56.3647 6.68931 56.1852 6.5541 56.1578 6.52137C56.0084 6.34308 53.6923 4.88515 52.9681 4.51335C52.7214 4.3867 52.4971 4.25756 52.4697 4.22632C52.4071 4.15498 49.9039 2.9398 49.8196 2.9398C49.7855 2.9398 49.545 2.83325 49.2851 2.70292C48.4654 2.29202 45.519 1.33193 43.5983 0.8499C42.9986 0.699371 40.9057 0.340308 39.7607 0.19157C38.418 0.017063 33.976 -0.0639226 32.4959 0.0591475Z" fill="url(#paint0_linear_38_25)"/>
<defs>
<linearGradient id="paint0_linear_38_25" x1="23.4743" y1="4.47709" x2="44.9332" y2="63.8492" gradientUnits="userSpaceOnUse">
<stop stop-color="#11F1C9"/>
<stop offset="1" stop-color="#006CC4"/>
</linearGradient>
</defs>
</svg>
