<svg width="124" height="118" viewBox="0 0 124 118" fill="none" xmlns="http://www.w3.org/2000/svg">
<path id="image (Traced)" fill-rule="evenodd" clip-rule="evenodd" d="M12.4713 0.121096C8.61254 0.669998 5.70876 2.10516 3.34168 4.63289C-1.73968 10.0592 -0.910031 19.5247 5.04109 24.0229C6.57174 25.18 8.13765 25.929 10.1517 26.4678C12.4089 27.0715 17.2318 27.0787 19.4519 26.4812C23.3052 25.4445 26.5643 23.0513 28.4122 19.9015C30.3334 16.6265 30.5099 12.6812 28.9148 8.67108C27.3388 4.70954 23.9586 1.70664 19.7373 0.518451C18.0884 0.0543223 14.3699 -0.149097 12.4713 0.121096ZM89.4936 36.5457C85.641 36.9078 81.5656 38.1363 79.2237 39.6413C78.6382 40.0177 77.2871 41.1121 76.2215 42.0734C73.481 44.5452 69.5614 49.0988 69.5432 49.8314C69.5399 49.9708 69.4423 50.0263 69.3264 49.9547C69.1747 49.861 69.1747 49.7658 69.3264 49.6142C69.4682 49.4726 69.537 47.5857 69.537 43.8297V38.2555H56.3134H43.0897V78.078V117.901L56.3099 117.95L69.5298 118L69.582 93.0611L69.6339 68.1221L70.5389 66.3018C71.6472 64.0725 72.8998 62.3973 74.8119 60.5865C77.4386 58.099 79.6902 57.3153 84.1654 57.3312C86.7595 57.3403 87.2329 57.3951 88.5721 57.842C89.3973 58.1174 90.5079 58.6218 91.0401 58.9628C93.7639 60.7088 95.7417 64.3237 96.7967 69.4835C97.0848 70.8931 97.1268 73.5708 97.1888 94.5296L97.2582 117.997H110.629H124L123.929 92.207C123.866 69.03 123.825 66.1912 123.525 64.1909C122.227 55.53 119.942 49.9872 115.847 45.5646C109.457 38.6641 100.299 35.5299 89.4936 36.5457ZM1.33595 78.1264V117.997H14.7049H28.0739V78.1264V38.2555H14.7049H1.33595V78.1264Z" fill="url(#paint0_linear_103_6)"/>
<defs>
<linearGradient id="paint0_linear_103_6" x1="62" y1="0" x2="62" y2="118" gradientUnits="userSpaceOnUse">
<stop stop-color="#0FE5C8"/>
<stop offset="1" stop-color="#069AC5"/>
</linearGradient>
</defs>
</svg>
